<?xml version="1.0" encoding="UTF-8"?>
<svg viewBox="0 0 720 130" xmlns="http://www.w3.org/2000/svg">
  <!-- axis -->
  <line x1="60" y1="80" x2="680" y2="80" stroke="#5a6071" stroke-width="1.5"/>
  <g font-family="-apple-system,sans-serif" font-size="11" fill="#5a6071">
    <line x1="60"  y1="76" x2="60"  y2="84" stroke="#5a6071"/><text x="60"  y="100" text-anchor="middle">0.0</text>
    <line x1="184" y1="76" x2="184" y2="84" stroke="#5a6071"/><text x="184" y="100" text-anchor="middle">0.2</text>
    <line x1="308" y1="76" x2="308" y2="84" stroke="#5a6071"/><text x="308" y="100" text-anchor="middle">0.4</text>
    <line x1="432" y1="76" x2="432" y2="84" stroke="#5a6071"/><text x="432" y="100" text-anchor="middle">0.6</text>
    <line x1="556" y1="76" x2="556" y2="84" stroke="#5a6071"/><text x="556" y="100" text-anchor="middle">0.8</text>
    <line x1="680" y1="76" x2="680" y2="84" stroke="#5a6071"/><text x="680" y="100" text-anchor="middle">1.0</text>
  </g>
  <!-- observed K-th band (0.149 – 0.421) -->
  <rect x="152" y="62" width="169" height="18" fill="#2c8485" fill-opacity="0.25" stroke="#2c8485" stroke-width="1"/>
  <text x="237" y="56" text-anchor="middle" font-family="-apple-system,sans-serif" font-size="11" fill="#2c8485" font-weight="600">observed K-th cosine</text>
  <text x="237" y="118" text-anchor="middle" font-family="-apple-system,sans-serif" font-size="10.5" fill="#5a6071">min 0.149 · p50 0.336 · max 0.421</text>
  <!-- median tick -->
  <line x1="268" y1="58" x2="268" y2="82" stroke="#2c8485" stroke-width="2"/>
  <!-- gate floor 0.50 -->
  <line x1="370" y1="40" x2="370" y2="90" stroke="#a8302c" stroke-width="2" stroke-dasharray="5,3"/>
  <text x="370" y="34" text-anchor="middle" font-family="-apple-system,sans-serif" font-size="11" fill="#a8302c" font-weight="700">gate floor 0.50</text>
  <text x="370" y="118" text-anchor="middle" font-family="-apple-system,sans-serif" font-size="10.5" fill="#a8302c">cleared 0% of events</text>
  <!-- gap (annotated separately) -->
</svg>